<svg width="190" height="14" viewBox="0 0 190 14" fill="none" xmlns="http://www.w3.org/2000/svg">
<path d="M10.493 11.02V13H1.20495V11.434L6.20895 6.68197C6.77295 6.14197 7.15095 5.67397 7.34295 5.27797C7.54695 4.86997 7.64895 4.46797 7.64895 4.07197C7.64895 3.48397 7.45095 3.03397 7.05495 2.72197C6.65895 2.40997 6.07695 2.25397 5.30895 2.25397C4.02495 2.25397 3.04095 2.69197 2.35695 3.56797L0.718951 2.30797C1.21095 1.64797 1.87095 1.13797 2.69895 0.777969C3.53895 0.405969 4.47495 0.219969 5.50695 0.219969C6.87495 0.219969 7.96695 0.543969 8.78295 1.19197C9.59895 1.83997 10.007 2.72197 10.007 3.83797C10.007 4.52197 9.86295 5.16397 9.57495 5.76397C9.28695 6.36397 8.73495 7.04797 7.91895 7.81597L4.55295 11.02H10.493ZM20.0155 6.37597C20.6755 6.67597 21.1795 7.08397 21.5275 7.59997C21.8875 8.10397 22.0675 8.69797 22.0675 9.38197C22.0675 10.15 21.8515 10.822 21.4195 11.398C20.9995 11.974 20.3995 12.418 19.6195 12.73C18.8395 13.03 17.9335 13.18 16.9015 13.18C15.8695 13.18 14.9635 13.03 14.1835 12.73C13.4155 12.418 12.8215 11.974 12.4015 11.398C11.9815 10.822 11.7715 10.15 11.7715 9.38197C11.7715 8.69797 11.9455 8.10397 12.2935 7.59997C12.6415 7.08397 13.1395 6.67597 13.7875 6.37597C13.2835 6.09997 12.8935 5.73997 12.6175 5.29597C12.3535 4.83997 12.2215 4.31797 12.2215 3.72997C12.2215 3.02197 12.4135 2.40397 12.7975 1.87597C13.1935 1.34797 13.7455 0.939968 14.4535 0.651969C15.1615 0.363969 15.9775 0.219969 16.9015 0.219969C17.8375 0.219969 18.6595 0.363969 19.3675 0.651969C20.0755 0.939968 20.6275 1.34797 21.0235 1.87597C21.4195 2.40397 21.6175 3.02197 21.6175 3.72997C21.6175 4.31797 21.4795 4.83397 21.2035 5.27797C20.9275 5.72197 20.5315 6.08797 20.0155 6.37597ZM16.9015 2.05597C16.1695 2.05597 15.5875 2.21197 15.1555 2.52397C14.7355 2.83597 14.5255 3.27397 14.5255 3.83797C14.5255 4.37797 14.7355 4.80997 15.1555 5.13397C15.5875 5.44597 16.1695 5.60197 16.9015 5.60197C17.6455 5.60197 18.2335 5.44597 18.6655 5.13397C19.0975 4.80997 19.3135 4.37797 19.3135 3.83797C19.3135 3.27397 19.0915 2.83597 18.6475 2.52397C18.2155 2.21197 17.6335 2.05597 16.9015 2.05597ZM16.9015 11.344C17.7655 11.344 18.4495 11.164 18.9535 10.804C19.4575 10.444 19.7095 9.94597 19.7095 9.30997C19.7095 8.68597 19.4575 8.19397 18.9535 7.83397C18.4495 7.47397 17.7655 7.29397 16.9015 7.29397C16.0375 7.29397 15.3595 7.47397 14.8675 7.83397C14.3755 8.19397 14.1295 8.68597 14.1295 9.30997C14.1295 9.94597 14.3755 10.444 14.8675 10.804C15.3595 11.164 16.0375 11.344 16.9015 11.344ZM27.9417 0.399969V13H25.6017V2.36197H22.9377V0.399969H27.9417ZM39.9452 0.399969V1.96597L35.0492 13H32.5472L37.2812 2.37997H32.3312V4.52197H30.1532V0.399969H39.9452ZM40.6939 7.05997H45.6439V8.93197H40.6939V7.05997ZM51.6696 0.219969C53.3976 0.219969 54.7356 0.759969 55.6836 1.83997C56.6436 2.91997 57.1236 4.46797 57.1236 6.48397C57.1236 7.89997 56.8656 9.11197 56.3496 10.12C55.8336 11.116 55.1076 11.878 54.1716 12.406C53.2476 12.922 52.1736 13.18 50.9496 13.18C50.3016 13.18 49.6896 13.114 49.1136 12.982C48.5496 12.838 48.0576 12.634 47.6376 12.37L48.5016 10.606C49.1256 11.014 49.9236 11.218 50.8956 11.218C52.1076 11.218 53.0556 10.846 53.7396 10.102C54.4236 9.35797 54.7656 8.28397 54.7656 6.87997V6.86197C54.3936 7.29397 53.9196 7.62397 53.3436 7.85197C52.7676 8.06797 52.1196 8.17597 51.3996 8.17597C50.5716 8.17597 49.8276 8.01997 49.1676 7.70797C48.5076 7.38397 47.9916 6.92797 47.6196 6.33997C47.2476 5.75197 47.0616 5.07397 47.0616 4.30597C47.0616 3.48997 47.2656 2.77597 47.6736 2.16397C48.0816 1.53997 48.6336 1.05997 49.3296 0.723969C50.0256 0.387969 50.8056 0.219969 51.6696 0.219969ZM51.8496 6.33997C52.6056 6.33997 53.2176 6.13597 53.6856 5.72797C54.1656 5.31997 54.4056 4.80397 54.4056 4.17997C54.4056 3.56797 54.1716 3.06397 53.7036 2.66797C53.2476 2.25997 52.6116 2.05597 51.7956 2.05597C51.0636 2.05597 50.4696 2.25397 50.0136 2.64997C49.5576 3.03397 49.3296 3.54997 49.3296 4.19797C49.3296 4.85797 49.5576 5.37997 50.0136 5.76397C50.4696 6.14797 51.0816 6.33997 51.8496 6.33997ZM69.9388 10.138H67.7068V13H65.4388V10.138H58.5268V8.51797L64.7368 0.399969H67.2388L61.3888 8.15797H65.5108V5.61997H67.7068V8.15797H69.9388V10.138ZM76.1796 13.18C75.1716 13.18 74.2716 12.928 73.4796 12.424C72.6876 11.908 72.0636 11.164 71.6076 10.192C71.1516 9.20797 70.9236 8.04397 70.9236 6.69997C70.9236 5.35597 71.1516 4.19797 71.6076 3.22597C72.0636 2.24197 72.6876 1.49797 73.4796 0.993968C74.2716 0.477969 75.1716 0.219969 76.1796 0.219969C77.1876 0.219969 78.0876 0.477969 78.8796 0.993968C79.6836 1.49797 80.3136 2.24197 80.7696 3.22597C81.2256 4.19797 81.4536 5.35597 81.4536 6.69997C81.4536 8.04397 81.2256 9.20797 80.7696 10.192C80.3136 11.164 79.6836 11.908 78.8796 12.424C78.0876 12.928 77.1876 13.18 76.1796 13.18ZM76.1796 11.146C77.0796 11.146 77.7876 10.774 78.3036 10.03C78.8316 9.28597 79.0956 8.17597 79.0956 6.69997C79.0956 5.22397 78.8316 4.11397 78.3036 3.36997C77.7876 2.62597 77.0796 2.25397 76.1796 2.25397C75.2916 2.25397 74.5836 2.62597 74.0556 3.36997C73.5396 4.11397 73.2816 5.22397 73.2816 6.69997C73.2816 8.17597 73.5396 9.28597 74.0556 10.03C74.5836 10.774 75.2916 11.146 76.1796 11.146ZM88.2231 5.60197C89.3871 5.74597 90.2751 6.14197 90.8871 6.78997C91.4991 7.43797 91.8051 8.24797 91.8051 9.21997C91.8051 9.95197 91.6191 10.618 91.2471 11.218C90.8751 11.818 90.3111 12.298 89.5551 12.658C88.8111 13.006 87.8991 13.18 86.8191 13.18C85.9191 13.18 85.0491 13.054 84.2091 12.802C83.3811 12.538 82.6731 12.178 82.0851 11.722L83.0931 9.90397C83.5491 10.288 84.1011 10.594 84.7491 10.822C85.4091 11.038 86.0871 11.146 86.7831 11.146C87.6111 11.146 88.2591 10.978 88.7271 10.642C89.2071 10.294 89.4471 9.82597 89.4471 9.23797C89.4471 8.64997 89.2191 8.19397 88.7631 7.86997C88.3191 7.53397 87.6351 7.36597 86.7111 7.36597H85.5591V5.76397L88.4211 2.36197H82.6971V0.399969H91.2831V1.96597L88.2231 5.60197ZM93.5337 7.05997H98.4837V8.93197H93.5337V7.05997ZM104.266 0.399969V13H101.926V2.36197H99.2619V0.399969H104.266ZM116.269 0.399969V1.96597L111.373 13H108.871L113.605 2.37997H108.655V4.52197H106.477V0.399969H116.269ZM125.572 6.37597C126.232 6.67597 126.736 7.08397 127.084 7.59997C127.444 8.10397 127.624 8.69797 127.624 9.38197C127.624 10.15 127.408 10.822 126.976 11.398C126.556 11.974 125.956 12.418 125.176 12.73C124.396 13.03 123.49 13.18 122.458 13.18C121.426 13.18 120.52 13.03 119.74 12.73C118.972 12.418 118.378 11.974 117.958 11.398C117.538 10.822 117.328 10.15 117.328 9.38197C117.328 8.69797 117.502 8.10397 117.85 7.59997C118.198 7.08397 118.696 6.67597 119.344 6.37597C118.84 6.09997 118.45 5.73997 118.174 5.29597C117.91 4.83997 117.778 4.31797 117.778 3.72997C117.778 3.02197 117.97 2.40397 118.354 1.87597C118.75 1.34797 119.302 0.939968 120.01 0.651969C120.718 0.363969 121.534 0.219969 122.458 0.219969C123.394 0.219969 124.216 0.363969 124.924 0.651969C125.632 0.939968 126.184 1.34797 126.58 1.87597C126.976 2.40397 127.174 3.02197 127.174 3.72997C127.174 4.31797 127.036 4.83397 126.76 5.27797C126.484 5.72197 126.088 6.08797 125.572 6.37597ZM122.458 2.05597C121.726 2.05597 121.144 2.21197 120.712 2.52397C120.292 2.83597 120.082 3.27397 120.082 3.83797C120.082 4.37797 120.292 4.80997 120.712 5.13397C121.144 5.44597 121.726 5.60197 122.458 5.60197C123.202 5.60197 123.79 5.44597 124.222 5.13397C124.654 4.80997 124.87 4.37797 124.87 3.83797C124.87 3.27397 124.648 2.83597 124.204 2.52397C123.772 2.21197 123.19 2.05597 122.458 2.05597ZM122.458 11.344C123.322 11.344 124.006 11.164 124.51 10.804C125.014 10.444 125.266 9.94597 125.266 9.30997C125.266 8.68597 125.014 8.19397 124.51 7.83397C124.006 7.47397 123.322 7.29397 122.458 7.29397C121.594 7.29397 120.916 7.47397 120.424 7.83397C119.932 8.19397 119.686 8.68597 119.686 9.30997C119.686 9.94597 119.932 10.444 120.424 10.804C120.916 11.164 121.594 11.344 122.458 11.344ZM140.374 10.138H138.142V13H135.874V10.138H128.962V8.51797L135.172 0.399969H137.674L131.824 8.15797H135.946V5.61997H138.142V8.15797H140.374V10.138ZM141.733 7.05997H146.683V8.93197H141.733V7.05997ZM152.403 5.27797C154.179 5.27797 155.493 5.62597 156.345 6.32197C157.197 7.00597 157.623 7.94197 157.623 9.12997C157.623 9.88597 157.437 10.57 157.065 11.182C156.693 11.794 156.135 12.28 155.391 12.64C154.647 13 153.729 13.18 152.637 13.18C151.737 13.18 150.867 13.054 150.027 12.802C149.187 12.538 148.479 12.178 147.903 11.722L148.893 9.90397C149.361 10.288 149.919 10.594 150.567 10.822C151.227 11.038 151.905 11.146 152.601 11.146C153.429 11.146 154.077 10.978 154.545 10.642C155.025 10.294 155.265 9.81997 155.265 9.21997C155.265 8.57197 155.007 8.08597 154.491 7.76197C153.987 7.42597 153.117 7.25797 151.881 7.25797H148.839L149.487 0.399969H156.885V2.36197H151.467L151.197 5.27797H152.403ZM164.249 5.60197C165.413 5.74597 166.301 6.14197 166.913 6.78997C167.525 7.43797 167.831 8.24797 167.831 9.21997C167.831 9.95197 167.645 10.618 167.273 11.218C166.901 11.818 166.337 12.298 165.581 12.658C164.837 13.006 163.925 13.18 162.845 13.18C161.945 13.18 161.075 13.054 160.235 12.802C159.407 12.538 158.699 12.178 158.111 11.722L159.119 9.90397C159.575 10.288 160.127 10.594 160.775 10.822C161.435 11.038 162.113 11.146 162.809 11.146C163.637 11.146 164.285 10.978 164.753 10.642C165.233 10.294 165.473 9.82597 165.473 9.23797C165.473 8.64997 165.245 8.19397 164.789 7.86997C164.345 7.53397 163.661 7.36597 162.737 7.36597H161.585V5.76397L164.447 2.36197H158.723V0.399969H167.309V1.96597L164.249 5.60197ZM178.689 0.399969V1.96597L173.793 13H171.291L176.025 2.37997H171.075V4.52197H168.897V0.399969H178.689ZM189.262 11.02V13H179.974V11.434L184.978 6.68197C185.542 6.14197 185.92 5.67397 186.112 5.27797C186.316 4.86997 186.418 4.46797 186.418 4.07197C186.418 3.48397 186.22 3.03397 185.824 2.72197C185.428 2.40997 184.846 2.25397 184.078 2.25397C182.794 2.25397 181.81 2.69197 181.126 3.56797L179.488 2.30797C179.98 1.64797 180.64 1.13797 181.468 0.777969C182.308 0.405969 183.244 0.219969 184.276 0.219969C185.644 0.219969 186.736 0.543969 187.552 1.19197C188.368 1.83997 188.776 2.72197 188.776 3.83797C188.776 4.52197 188.632 5.16397 188.344 5.76397C188.056 6.36397 187.504 7.04797 186.688 7.81597L183.322 11.02H189.262Z" fill="white"/>
</svg>
